<svg xmlns="http://www.w3.org/2000/svg" width="484" height="69" viewBox="0 0 484 69"><path fill="#0b0b15" d="M43.50 51.20L43.50 51.20Q42.80 51.70 41.65 52.10Q40.50 52.50 39.10 52.50L39.10 52.50Q37.50 52.50 36.25 52Q35 51.50 34.50 50.40L34.50 50.40Q29.10 39.20 25.20 29.90Q21.30 20.60 18.90 14.50L18.90 14.50L18.50 14.50Q18.20 22 17.85 28.45Q17.50 34.90 17.10 41.05Q16.70 47.20 16.30 53.50Q15.90 59.80 15.50 67L15.50 67Q14.90 67.20 13.95 67.40Q13 67.60 11.90 67.60L11.90 67.60Q9.70 67.60 8.80 66.70Q7.90 65.80 7.90 64.10L7.90 64.10Q7.90 63.10 8.05 59.80Q8.20 56.50 8.50 51.80Q8.80 47.10 9.15 41.40Q9.50 35.70 9.95 29.80Q10.40 23.90 10.85 18.20Q11.30 12.50 11.70 7.80L11.70 7.80Q12.50 7.10 14 6.50Q15.50 5.90 17.40 5.90L17.40 5.90Q22 5.90 23.80 9.60L23.80 9.60Q25.70 13.50 27.65 17.85Q29.60 22.20 31.55 26.70Q33.50 31.20 35.35 35.60Q37.20 40 38.90 44L38.90 44L39.30 44Q41.50 38.70 43.70 33.55Q45.90 28.40 48 23.60Q50.10 18.80 52 14.60Q53.90 10.40 55.40 6.90L55.40 6.90Q56.30 6.40 57.70 6.15Q59.10 5.90 60.30 5.90L60.30 5.90Q65 5.90 65.70 9.10L65.70 9.10Q66.10 10.90 66.60 15.05Q67.10 19.20 67.60 24.60Q68.10 30 68.55 36.20Q69 42.40 69.40 48.15Q69.80 53.90 70.10 58.75Q70.40 63.60 70.60 66.40L70.60 66.40Q68.80 67.60 66.40 67.60L66.40 67.60Q64.90 67.60 63.75 66.85Q62.60 66.10 62.40 64.10L62.40 64.10Q61.90 56.80 61.50 49.60Q61.10 42.40 60.75 35.90Q60.40 29.40 60.10 23.95Q59.80 18.50 59.60 14.70L59.60 14.70L59.20 14.70Q58.10 17.50 56.65 21Q55.20 24.50 53.25 28.90Q51.30 33.30 48.90 38.85Q46.50 44.40 43.50 51.20ZM102 61.80L102 61.80Q106.20 61.80 108.95 60.95Q111.70 60.10 112.90 59.30L112.90 59.30L112.90 44.80L100.50 46.10Q95.30 46.60 92.80 48.45Q90.30 50.30 90.30 53.90L90.30 53.90Q90.30 57.70 93.20 59.75Q96.10 61.80 102 61.80ZM101.90 19.50L101.90 19.50Q110.60 19.50 115.70 23.40Q120.80 27.30 120.80 35.70L120.80 35.70L120.80 59.40Q120.80 61.60 119.95 62.75Q119.10 63.90 117.40 64.90L117.40 64.90Q115 66.30 111.05 67.35Q107.10 68.40 102 68.40L102 68.40Q92.60 68.40 87.45 64.70Q82.30 61 82.30 54L82.30 54Q82.30 47.40 86.60 44.05Q90.90 40.70 98.70 39.90L98.70 39.90L112.90 38.50L112.90 35.70Q112.90 30.70 109.90 28.40Q106.90 26.10 101.80 26.10L101.80 26.10Q97.60 26.10 93.90 27.30Q90.20 28.50 87.30 30L87.30 30Q86.50 29.30 85.85 28.40Q85.20 27.50 85.20 26.40L85.20 26.40Q85.20 25 85.90 24.10Q86.60 23.20 88.10 22.40L88.10 22.40Q90.80 21 94.30 20.25Q97.80 19.50 101.90 19.50ZM174.90 5.10L174.90 59.40Q174.90 61.40 174.05 62.50Q173.20 63.60 171.40 64.70L171.40 64.70Q169.40 66 165.70 67.15Q162 68.30 157.20 68.30L157.20 68.30Q151.80 68.30 147.30 66.90Q142.80 65.50 139.55 62.55Q136.30 59.60 134.55 55.05Q132.80 50.50 132.80 44.10L132.80 44.10Q132.80 37.60 134.60 32.95Q136.40 28.30 139.45 25.30Q142.50 22.30 146.65 20.90Q150.80 19.50 155.50 19.50L155.50 19.50Q158.70 19.50 161.70 20.30Q164.70 21.10 166.90 22.30L166.90 22.30L166.90 2.20Q167.40 2 168.45 1.75Q169.50 1.50 170.60 1.50L170.60 1.50Q174.90 1.50 174.90 5.10L174.90 5.10ZM166.90 59.10L166.90 29.50Q164.90 28.10 162.30 27.10Q159.70 26.10 156.30 26.10L156.30 26.10Q153.20 26.10 150.45 27.05Q147.70 28 145.60 30.15Q143.50 32.30 142.25 35.80Q141 39.30 141 44.30L141 44.30Q141 53.50 145.40 57.60Q149.80 61.70 157.10 61.70L157.10 61.70Q160.60 61.70 162.85 60.95Q165.10 60.20 166.90 59.10L166.90 59.10ZM198.20 17.10L198.20 23.40L218.00 23.40Q218.30 23.90 218.60 24.70Q218.90 25.50 218.90 26.60L218.90 26.60Q218.90 29.90 215.80 29.90L215.80 29.90L198.30 29.90L198.30 66.80Q197.80 67 196.80 67.25Q195.80 67.50 194.60 67.50L194.60 67.50Q190.30 67.50 190.30 63.90L190.30 63.90L190.30 16.70Q190.30 7.90 195.05 3.95Q199.80 0 208.30 0L208.30 0Q214.00 0 217.25 1.50Q220.50 3 220.50 5.20L220.50 5.20Q220.50 7.40 218.80 8.90L218.80 8.90Q217.00 7.90 214.30 7.25Q211.60 6.60 209.10 6.60L209.10 6.60Q203.00 6.60 200.60 9.10Q198.20 11.60 198.20 17.10L198.20 17.10ZM238.00 29.40L238.00 66.80Q237.50 67 236.50 67.25Q235.50 67.50 234.30 67.50L234.30 67.50Q230.00 67.50 230.00 63.90L230.00 63.90L230.00 30Q230.00 27.70 230.85 26.35Q231.70 25 233.70 23.70L233.70 23.70Q236.30 22 240.75 20.75Q245.20 19.50 250.80 19.50L250.80 19.50Q258.80 19.50 258.80 23.50L258.80 23.50Q258.80 24.50 258.50 25.35Q258.20 26.20 257.70 26.80L257.70 26.80Q256.70 26.60 255.10 26.40Q253.50 26.20 251.90 26.20L251.90 26.20Q247.30 26.20 243.80 27.15Q240.30 28.10 238.00 29.40L238.00 29.40ZM284.70 61.80L284.70 61.80Q288.90 61.80 291.65 60.95Q294.40 60.10 295.60 59.30L295.60 59.30L295.60 44.80L283.20 46.10Q278.00 46.60 275.50 48.45Q273.00 50.30 273.00 53.90L273.00 53.90Q273.00 57.70 275.90 59.75Q278.80 61.80 284.70 61.80ZM284.60 19.50L284.60 19.50Q293.30 19.50 298.40 23.40Q303.50 27.30 303.50 35.70L303.50 35.70L303.50 59.40Q303.50 61.60 302.65 62.75Q301.80 63.90 300.10 64.90L300.10 64.90Q297.70 66.30 293.75 67.35Q289.80 68.40 284.70 68.40L284.70 68.40Q275.30 68.40 270.15 64.70Q265.00 61 265.00 54L265.00 54Q265.00 47.40 269.30 44.05Q273.60 40.70 281.40 39.90L281.40 39.90L295.60 38.50L295.60 35.70Q295.60 30.70 292.60 28.40Q289.60 26.10 284.50 26.10L284.50 26.10Q280.30 26.10 276.60 27.30Q272.90 28.50 270.00 30L270.00 30Q269.20 29.30 268.55 28.40Q267.90 27.50 267.90 26.40L267.90 26.40Q267.90 25 268.60 24.10Q269.30 23.20 270.80 22.40L270.80 22.40Q273.50 21 277.00 20.25Q280.50 19.50 284.60 19.50ZM376.70 35.60L376.70 35.60Q376.70 30.70 373.90 28.40Q371.10 26.10 366.40 26.10L366.40 26.10Q359.90 26.10 354.80 30.70L354.80 30.70Q355.40 32.70 355.40 35L355.40 35L355.40 66.80Q354.90 67 353.85 67.25Q352.80 67.50 351.70 67.50L351.70 67.50Q347.40 67.50 347.40 63.90L347.40 63.90L347.40 35.60Q347.40 30.70 344.60 28.40Q341.80 26.10 337 26.10L337 26.10Q333.80 26.10 330.95 27.10Q328.10 28.10 326.10 29.40L326.10 29.40L326.10 66.80Q325.60 67 324.60 67.25Q323.60 67.50 322.40 67.50L322.40 67.50Q318.10 67.50 318.10 63.90L318.10 63.90L318.10 29.80Q318.10 27.80 318.95 26.45Q319.80 25.10 321.90 23.70L321.90 23.70Q324.60 22 328.75 20.75Q332.90 19.50 337.10 19.50L337.10 19.50Q342 19.50 345.80 20.95Q349.60 22.40 351.60 24.90L351.60 24.90Q354.20 22.60 358.10 21.05Q362 19.50 367 19.50L367 19.50Q375.10 19.50 379.90 23.35Q384.70 27.20 384.70 35.20L384.70 35.20L384.70 66.80Q384.20 67 383.15 67.25Q382.10 67.50 381 67.50L381 67.50Q376.70 67.50 376.70 63.90L376.70 63.90L376.70 35.60ZM442.60 43.90L442.60 43.90Q442.60 49.50 441.00 54Q439.40 58.50 436.45 61.70Q433.50 64.90 429.30 66.60Q425.10 68.30 419.90 68.30L419.90 68.30Q414.70 68.30 410.50 66.60Q406.30 64.90 403.30 61.70Q400.30 58.50 398.70 54Q397.10 49.50 397.10 43.90L397.10 43.90Q397.10 38.30 398.75 33.80Q400.40 29.30 403.40 26.10Q406.40 22.90 410.60 21.20Q414.80 19.50 419.90 19.50L419.90 19.50Q425.00 19.50 429.20 21.20Q433.40 22.90 436.35 26.10Q439.30 29.30 440.95 33.80Q442.60 38.30 442.60 43.90ZM419.90 26.10L419.90 26.10Q413.10 26.10 409.20 30.80Q405.30 35.50 405.30 43.90L405.30 43.90Q405.30 52.40 409.15 57.05Q413.00 61.70 419.90 61.70L419.90 61.70Q426.80 61.70 430.60 57Q434.40 52.30 434.40 43.90L434.40 43.90Q434.40 35.50 430.55 30.80Q426.70 26.10 419.90 26.10ZM463.00 29.40L463.00 66.80Q462.50 67 461.50 67.25Q460.50 67.50 459.30 67.50L459.30 67.50Q455.00 67.50 455.00 63.90L455.00 63.90L455.00 30Q455.00 27.70 455.85 26.35Q456.70 25 458.70 23.70L458.70 23.70Q461.30 22 465.75 20.75Q470.20 19.50 475.80 19.50L475.80 19.50Q483.80 19.50 483.80 23.50L483.80 23.50Q483.80 24.50 483.50 25.35Q483.20 26.20 482.70 26.80L482.70 26.80Q481.70 26.60 480.10 26.40Q478.50 26.20 476.90 26.20L476.90 26.20Q472.30 26.20 468.80 27.15Q465.30 28.10 463.00 29.40L463.00 29.40Z"></path></svg>